solid OpenSCAD_Model
  facet normal 1 0 0
    outer loop
      vertex 47 151 25
      vertex 47 22.5 15
      vertex 47 151 0
    endloop
  endfacet
  facet normal 1 -0 0
    outer loop
      vertex 47 0 25
      vertex 47 22.5 15
      vertex 47 151 25
    endloop
  endfacet
  facet normal 1 0 0
    outer loop
      vertex 47 22.5 15
      vertex 47 0 25
      vertex 47 7.5 15
    endloop
  endfacet
  facet normal 1 0 0
    outer loop
      vertex 47 0 0
      vertex 47 7.5 15
      vertex 47 0 25
    endloop
  endfacet
  facet normal 1 0 0
    outer loop
      vertex 47 7.5 15
      vertex 47 0 0
      vertex 47 7.5 0
    endloop
  endfacet
  facet normal 1 0 0
    outer loop
      vertex 47 151 0
      vertex 47 22.5 15
      vertex 47 22.5 0
    endloop
  endfacet
  facet normal 0 0 1
    outer loop
      vertex 47 151 25
      vertex 42 143.5 25
      vertex 47 0 25
    endloop
  endfacet
  facet normal 0 0 1
    outer loop
      vertex 47 151 25
      vertex 5 143.5 25
      vertex 42 143.5 25
    endloop
  endfacet
  facet normal 0 0 1
    outer loop
      vertex 5 143.5 25
      vertex 0 151 25
      vertex 5 7.5 25
    endloop
  endfacet
  facet normal -0 0 1
    outer loop
      vertex 0 151 25
      vertex 5 143.5 25
      vertex 47 151 25
    endloop
  endfacet
  facet normal -0 0 1
    outer loop
      vertex 42 7.5 25
      vertex 47 0 25
      vertex 42 143.5 25
    endloop
  endfacet
  facet normal -0 0 1
    outer loop
      vertex 5 7.5 25
      vertex 47 0 25
      vertex 42 7.5 25
    endloop
  endfacet
  facet normal 0 0 1
    outer loop
      vertex 5 7.5 25
      vertex 0 0 25
      vertex 47 0 25
    endloop
  endfacet
  facet normal 0 0 1
    outer loop
      vertex 0 0 25
      vertex 5 7.5 25
      vertex 0 151 25
    endloop
  endfacet
  facet normal 0 0 -1
    outer loop
      vertex 42 143.5 0
      vertex 47 22.5 0
      vertex 42 22.5 0
    endloop
  endfacet
  facet normal 0 0 -1
    outer loop
      vertex 47 22.5 0
      vertex 42 143.5 0
      vertex 47 151 0
    endloop
  endfacet
  facet normal 0 0 -1
    outer loop
      vertex 0 151 0
      vertex 42 143.5 0
      vertex 0 143.5 0
    endloop
  endfacet
  facet normal 0 0 -1
    outer loop
      vertex 42 143.5 0
      vertex 0 151 0
      vertex 47 151 0
    endloop
  endfacet
  facet normal 0 0 -1
    outer loop
      vertex 0 0 0
      vertex 47 7.5 0
      vertex 47 0 0
    endloop
  endfacet
  facet normal -0 0 -1
    outer loop
      vertex 47 7.5 0
      vertex 0 0 0
      vertex 0 7.5 0
    endloop
  endfacet
  facet normal 0 0 -1
    outer loop
      vertex 0 22.5 0
      vertex 5 138.5 0
      vertex 5 22.5 0
    endloop
  endfacet
  facet normal -0 0 -1
    outer loop
      vertex 5 138.5 0
      vertex 0 22.5 0
      vertex 0 138.5 0
    endloop
  endfacet
  facet normal -1 0 0
    outer loop
      vertex 0 7.5 0
      vertex 0 0 0
      vertex 0 7.5 15
    endloop
  endfacet
  facet normal -1 0 0
    outer loop
      vertex 0 138.5 0
      vertex 0 22.5 0
      vertex 0 138.5 10
    endloop
  endfacet
  facet normal -1 0 0
    outer loop
      vertex 0 143.5 10
      vertex 0 151 0
      vertex 0 143.5 0
    endloop
  endfacet
  facet normal -1 0 0
    outer loop
      vertex 0 151 0
      vertex 0 143.5 10
      vertex 0 151 25
    endloop
  endfacet
  facet normal -1 0 0
    outer loop
      vertex 0 138.5 10
      vertex 0 151 25
      vertex 0 143.5 10
    endloop
  endfacet
  facet normal -1 0 0
    outer loop
      vertex 0 22.5 15
      vertex 0 138.5 10
      vertex 0 22.5 0
    endloop
  endfacet
  facet normal -1 0 0
    outer loop
      vertex 0 138.5 10
      vertex 0 22.5 15
      vertex 0 151 25
    endloop
  endfacet
  facet normal -1 0 0
    outer loop
      vertex 0 0 25
      vertex 0 22.5 15
      vertex 0 7.5 15
    endloop
  endfacet
  facet normal -1 0 0
    outer loop
      vertex 0 22.5 15
      vertex 0 0 25
      vertex 0 151 25
    endloop
  endfacet
  facet normal -1 0 0
    outer loop
      vertex 0 0 25
      vertex 0 7.5 15
      vertex 0 0 0
    endloop
  endfacet
  facet normal 0 1 -0
    outer loop
      vertex 47 151 0
      vertex 0 151 25
      vertex 47 151 25
    endloop
  endfacet
  facet normal 0 1 0
    outer loop
      vertex 0 151 25
      vertex 47 151 0
      vertex 0 151 0
    endloop
  endfacet
  facet normal 0 -1 0
    outer loop
      vertex 0 0 0
      vertex 47 0 25
      vertex 0 0 25
    endloop
  endfacet
  facet normal 0 -1 -0
    outer loop
      vertex 47 0 25
      vertex 0 0 0
      vertex 47 0 0
    endloop
  endfacet
  facet normal -1 0 0
    outer loop
      vertex 42 22.5 15
      vertex 42 143.5 0
      vertex 42 22.5 0
    endloop
  endfacet
  facet normal -1 0 0
    outer loop
      vertex 42 143.5 0
      vertex 42 22.5 15
      vertex 42 143.5 25
    endloop
  endfacet
  facet normal -1 0 0
    outer loop
      vertex 42 7.5 25
      vertex 42 22.5 15
      vertex 42 7.5 15
    endloop
  endfacet
  facet normal -1 0 0
    outer loop
      vertex 42 22.5 15
      vertex 42 7.5 25
      vertex 42 143.5 25
    endloop
  endfacet
  facet normal 1 0 0
    outer loop
      vertex 5 143.5 25
      vertex 5 138.5 10
      vertex 5 143.5 10
    endloop
  endfacet
  facet normal 1 0 0
    outer loop
      vertex 5 22.5 0
      vertex 5 138.5 10
      vertex 5 22.5 15
    endloop
  endfacet
  facet normal 1 0 0
    outer loop
      vertex 5 143.5 25
      vertex 5 22.5 15
      vertex 5 138.5 10
    endloop
  endfacet
  facet normal 1 -0 0
    outer loop
      vertex 5 7.5 25
      vertex 5 22.5 15
      vertex 5 143.5 25
    endloop
  endfacet
  facet normal 1 0 0
    outer loop
      vertex 5 22.5 15
      vertex 5 7.5 25
      vertex 5 7.5 15
    endloop
  endfacet
  facet normal 1 0 0
    outer loop
      vertex 5 138.5 10
      vertex 5 22.5 0
      vertex 5 138.5 0
    endloop
  endfacet
  facet normal 0 -1 0
    outer loop
      vertex 0 143.5 10
      vertex 0 143.5 0
      vertex 5 143.5 10
    endloop
  endfacet
  facet normal 0 -1 0
    outer loop
      vertex 5 143.5 10
      vertex 42 143.5 25
      vertex 5 143.5 25
    endloop
  endfacet
  facet normal 0 -1 0
    outer loop
      vertex 42 143.5 0
      vertex 5 143.5 10
      vertex 0 143.5 0
    endloop
  endfacet
  facet normal 0 -1 0
    outer loop
      vertex 5 143.5 10
      vertex 42 143.5 0
      vertex 42 143.5 25
    endloop
  endfacet
  facet normal 0 1 -0
    outer loop
      vertex 47 7.5 0
      vertex 42 7.5 15
      vertex 47 7.5 15
    endloop
  endfacet
  facet normal 0 1 0
    outer loop
      vertex 42 7.5 15
      vertex 47 7.5 0
      vertex 5 7.5 15
    endloop
  endfacet
  facet normal 0 1 0
    outer loop
      vertex 0 7.5 0
      vertex 5 7.5 15
      vertex 47 7.5 0
    endloop
  endfacet
  facet normal 0 1 0
    outer loop
      vertex 5 7.5 15
      vertex 0 7.5 0
      vertex 0 7.5 15
    endloop
  endfacet
  facet normal 0 1 -0
    outer loop
      vertex 42 7.5 15
      vertex 5 7.5 25
      vertex 42 7.5 25
    endloop
  endfacet
  facet normal 0 1 0
    outer loop
      vertex 5 7.5 25
      vertex 42 7.5 15
      vertex 5 7.5 15
    endloop
  endfacet
  facet normal 0 0 -1
    outer loop
      vertex 0 7.5 15
      vertex 5 22.5 15
      vertex 5 7.5 15
    endloop
  endfacet
  facet normal -0 0 -1
    outer loop
      vertex 5 22.5 15
      vertex 0 7.5 15
      vertex 0 22.5 15
    endloop
  endfacet
  facet normal 0 0 -1
    outer loop
      vertex 42 7.5 15
      vertex 47 22.5 15
      vertex 47 7.5 15
    endloop
  endfacet
  facet normal -0 0 -1
    outer loop
      vertex 47 22.5 15
      vertex 42 7.5 15
      vertex 42 22.5 15
    endloop
  endfacet
  facet normal 0 -1 0
    outer loop
      vertex 0 22.5 0
      vertex 5 22.5 15
      vertex 0 22.5 15
    endloop
  endfacet
  facet normal 0 -1 -0
    outer loop
      vertex 5 22.5 15
      vertex 0 22.5 0
      vertex 5 22.5 0
    endloop
  endfacet
  facet normal 0 -1 0
    outer loop
      vertex 42 22.5 0
      vertex 47 22.5 15
      vertex 42 22.5 15
    endloop
  endfacet
  facet normal 0 -1 -0
    outer loop
      vertex 47 22.5 15
      vertex 42 22.5 0
      vertex 47 22.5 0
    endloop
  endfacet
  facet normal 0 0 -1
    outer loop
      vertex 0 138.5 10
      vertex 5 143.5 10
      vertex 5 138.5 10
    endloop
  endfacet
  facet normal -0 0 -1
    outer loop
      vertex 5 143.5 10
      vertex 0 138.5 10
      vertex 0 143.5 10
    endloop
  endfacet
  facet normal 0 1 -0
    outer loop
      vertex 5 138.5 0
      vertex 0 138.5 10
      vertex 5 138.5 10
    endloop
  endfacet
  facet normal 0 1 0
    outer loop
      vertex 0 138.5 10
      vertex 5 138.5 0
      vertex 0 138.5 0
    endloop
  endfacet
endsolid OpenSCAD_Model
